# xmcd
#
# Track frame offsets:
#	150
#	14349
#	23210
#	35635
#	49276
#	60227
#	78038
#	91734
#	106406
#	115271
#	127222
#	138336
#
# Disc length: 2018 seconds
#
# Revision: 0
# Processed by: cddbd v1.5.1PL0 Copyright (c) Steve Scherf et al.
# Submitted via: dBpowerAMP V4.0
#
DISCID=9707e00c
DTITLE=Various Artist - Memories: An American Songbook [CD1]
DYEAR=1900
DGENRE=Easy Listening
TTITLE0=Billie Holiday - God Bless The Child
TTITLE1=Perry Como - You Do Something To Me
TTITLE2=Ella Fitsgerald - Shake Down The Stars
TTITLE3=Rosemary Clooney - Thrill Me
TTITLE4=Sarah Vaughan - I Cried For You
TTITLE5=Nina Simone - It Might As Well Be Spring
TTITLE6=Louis Armstrong - A Kiss To Build A Dream On
TTITLE7=Lena Horne - All I Desire
TTITLE8=Al Martino - Three Little Worlds
TTITLE9=Carmen McRae - Don't Ever Leave Me
TTITLE10=Mel Torme - I'm Getting Sentimental Over You
TTITLE11=Judy Garland with Bing Crosby - You Got Me Where You Want Me
EXTD=
EXTT0=
EXTT1=
EXTT2=
EXTT3=
EXTT4=
EXTT5=
EXTT6=
EXTT7=
EXTT8=
EXTT9=
EXTT10=
EXTT11=
PLAYORDER=
